<svg width="24" height="24" viewBox="0 0 24 24" fill="none" xmlns="http://www.w3.org/2000/svg">
    <path fill-rule="evenodd" clip-rule="evenodd" d="M12 2.64a9.36 9.36 0 1 0 0 18.72 9.36 9.36 0 0 0 0-18.72zM6.219 6.22A8.175 8.175 0 1 1 17.78 17.78 8.175 8.175 0 0 1 6.22 6.22zm9.122 2.439a.592.592 0 0 1 0 .837L12.837 12l2.504 2.504a.592.592 0 0 1-.838.837L12 12.838 9.496 15.34a.592.592 0 1 1-.838-.837L11.162 12 8.658 9.496a.592.592 0 0 1 .838-.837L12 11.162l2.503-2.503a.592.592 0 0 1 .838 0z" fill="#48484E"/>
</svg>
